<?xml version="1.0" encoding="UTF-8"?>
<svg id="Layer_1" data-name="Layer 1" xmlns="http://www.w3.org/2000/svg" xmlns:xlink="http://www.w3.org/1999/xlink" viewBox="0 0 300 92.23">
  <defs>
    <style>
      .cls-1 {
        fill: url(#linear-gradient-5);
      }

      .cls-2 {
        fill: url(#linear-gradient-4);
      }

      .cls-3 {
        fill: url(#linear-gradient-3);
      }

      .cls-4 {
        fill: url(#linear-gradient-2);
      }

      .cls-5 {
        fill: url(#linear-gradient);
      }

      .cls-6 {
        fill: #03c;
      }
    </style>
    <linearGradient id="linear-gradient" x1="62.88" y1="23.24" x2="81.6" y2="52.53" gradientUnits="userSpaceOnUse">
      <stop offset="0" stop-color="#00adf5"/>
      <stop offset="1" stop-color="#008feb"/>
    </linearGradient>
    <linearGradient id="linear-gradient-2" x1="31.94" y1="18.56" x2="58.8" y2="25.37" gradientUnits="userSpaceOnUse">
      <stop offset="0" stop-color="#0cf"/>
      <stop offset="1" stop-color="#00adf5"/>
    </linearGradient>
    <linearGradient id="linear-gradient-3" x1="23.14" y1="57.39" x2="23.26" y2="23.72" gradientUnits="userSpaceOnUse">
      <stop offset="0" stop-color="#0052d6"/>
      <stop offset="1" stop-color="#03c"/>
    </linearGradient>
    <linearGradient id="linear-gradient-4" x1="48.71" y1="76.16" x2="23.79" y2="61.57" gradientUnits="userSpaceOnUse">
      <stop offset="0" stop-color="#0070e0"/>
      <stop offset="1" stop-color="#0052d6"/>
    </linearGradient>
    <linearGradient id="linear-gradient-5" x1="74.66" y1="50.93" x2="57.52" y2="84.35" gradientUnits="userSpaceOnUse">
      <stop offset="0" stop-color="#008feb"/>
      <stop offset="1" stop-color="#0070e0"/>
    </linearGradient>
  </defs>
  <g>
    <path class="cls-5" d="M62.18,22.45c10.93-.02,17.33-.02,27.94,0l6.79,20.51-16.96,12.44c-.7-2.32-1.15-3.68-2.1-5.65-.75-1.6-2.14-3.25-4.2-4.68-2.72-2.03-5.55-2.76-8.24-2.75-6.71.08-11.27-.01-18.09,0,1.62-4.81,2.81-8.73,4.04-12.44.66-1.8,2-3.71,4.04-5.17,2.3-1.69,4.05-2.28,6.78-2.26Z"/>
    <path class="cls-4" d="M32.46,39.25c3.21,2.34,6.57,4.68,10.66,7.59,2.09-6.37,3.58-10.68,5.65-16.96.75-2.69,2.31-5.17,5.01-7.11,2.08-1.51,4.07-2.33,5.98-2.58,2.02-.26,3.46-.27,5.81-.32L59.11,0h-21.64c-3.32,10.2-5.3,16.28-8.72,26.65-.8,2.63-.8,4.48.16,7.11.73,2.46,2.12,4.34,3.55,5.49Z"/>
    <path class="cls-3" d="M29.56,61.7c2.49-.05,4.71-.81,6.3-1.94,3.17-2.22,6.44-4.69,10.5-7.59-5.45-4.04-9.09-6.79-14.54-10.66-2.2-1.58-4.07-3.83-5.17-7.11-.72-2.34-.88-4.49-.48-6.3.33-2.07.77-3.44,1.45-5.65H6.62L0,42.96c8.7,6.34,13.88,10.1,22.61,16.48,2.32,1.66,4.08,2.2,6.94,2.26Z"/>
    <path class="cls-2" d="M56.05,69.94c.72-2.48.69-4.82.16-6.62-1.18-3.76-2.52-7.63-4.04-12.44-5.52,3.98-9.26,6.59-14.54,10.5-2.27,1.68-4.99,2.75-8.4,2.75-2.49.03-4.58-.5-6.14-1.45-1.92-.93-3.09-1.77-5.01-3.23l-6.46,20.03,17.61,12.6c8.58-6.22,13.75-9.98,22.61-16.31,2.2-1.7,3.27-3.2,4.2-5.82Z"/>
    <path class="cls-1" d="M72.2,47.16c-2.13-1.58-4.36-2.27-6.3-2.26-3.87-.11-7.97-.03-13.08,0,2.15,6.4,3.47,10.77,5.65,17.12.81,2.56.96,5.47,0,8.72-.8,2.37-1.96,4.19-3.23,5.49-1.6,1.42-2.76,2.27-4.68,3.72l16.96,12.28,17.44-12.76c-3.25-10.18-5.22-16.26-8.56-26.65-.89-2.61-1.98-4.1-4.2-5.65Z"/>
  </g>
  <g>
    <path class="cls-6" d="M161.79,53.05c0,.93.03,1.91.08,2.96.05,1.05.15,2.12.28,3.24l-27.52-34.75c-.37-.45-.7-.8-.99-1.07-.29-.27-.59-.47-.91-.62-.32-.15-.68-.25-1.07-.3-.4-.05-.89-.08-1.47-.08h-7.07v57.87h11.83v-31.02c0-.85-.02-1.76-.06-2.72-.04-.97-.11-1.97-.22-3l27.29,34.51c.69.82,1.38,1.4,2.08,1.73.7.33,1.57.5,2.6.5h6.99V22.43h-11.84v30.62Z"/>
    <path class="cls-6" d="M197.41,22.43l-22.4,57.87h10.48c1.11,0,2.04-.3,2.8-.89.75-.6,1.28-1.27,1.57-2.01l.2-.57c1.61-5.84,9.84-10.95,17.55-12.35,2.21-.4,4.42-.52,6.61-.37,2.5,7.41,4.48,13.28,4.48,13.28.37.85.91,1.54,1.63,2.08.71.54,1.65.81,2.82.81h10.4l-22.4-57.87h-13.74ZM205.75,54.24c-3.19.58-6.23,1.57-9.07,2.9,3.62-10.77,7.36-21.98,7.56-22.8.21.72,3.23,9.74,6.46,19.33-1.65.08-3.3.26-4.96.56Z"/>
    <path class="cls-6" d="M289.75,22.43c-.58,0-1.09.02-1.53.04-.44.03-.83.11-1.17.24-.34.13-.65.34-.93.62-.28.28-.55.67-.81,1.17l-14.85,29.23c-.56,1.01-1.08,2.07-1.57,3.18-.49,1.11-.96,2.25-1.41,3.42-.45-1.14-.92-2.25-1.41-3.34-.49-1.09-1-2.13-1.53-3.14l-14.89-29.35c-.27-.5-.54-.89-.81-1.17-.28-.28-.59-.48-.93-.62-.34-.13-.73-.21-1.17-.24-.44-.03-.95-.04-1.53-.04h-10.25v57.87h11.83v-33.28c0-.77-.03-1.61-.08-2.52-.05-.91-.12-1.85-.2-2.8l15.37,29.83c.48.93,1.12,1.63,1.93,2.11.81.48,1.73.71,2.76.71h1.83c1.03,0,1.95-.24,2.76-.71.81-.48,1.45-1.18,1.93-2.11l15.37-29.75c-.11.92-.18,1.84-.22,2.74-.04.9-.06,1.73-.06,2.5v33.28h11.83V22.43h-10.25Z"/>
  </g>
</svg>