<?xml version="1.0" encoding="UTF-8"?>
<svg id="Layer_1" data-name="Layer 1" xmlns="http://www.w3.org/2000/svg" xmlns:xlink="http://www.w3.org/1999/xlink" viewBox="0 0 212.07 300">
  <defs>
    <style>
      .cls-1 {
        fill: url(#linear-gradient-5);
      }

      .cls-2 {
        fill: url(#linear-gradient-4);
      }

      .cls-3 {
        fill: url(#linear-gradient-3);
      }

      .cls-4 {
        fill: url(#linear-gradient-2);
      }

      .cls-5 {
        fill: url(#linear-gradient);
      }

      .cls-6 {
        fill: #03c;
      }
    </style>
    <linearGradient id="linear-gradient" x1="137.61" y1="50.86" x2="178.56" y2="114.95" gradientUnits="userSpaceOnUse">
      <stop offset="0" stop-color="#00adf5"/>
      <stop offset="1" stop-color="#008feb"/>
    </linearGradient>
    <linearGradient id="linear-gradient-2" x1="69.89" y1="40.61" x2="128.67" y2="55.51" gradientUnits="userSpaceOnUse">
      <stop offset="0" stop-color="#0cf"/>
      <stop offset="1" stop-color="#00adf5"/>
    </linearGradient>
    <linearGradient id="linear-gradient-3" x1="50.64" y1="125.58" x2="50.91" y2="51.91" gradientUnits="userSpaceOnUse">
      <stop offset="0" stop-color="#0052d6"/>
      <stop offset="1" stop-color="#03c"/>
    </linearGradient>
    <linearGradient id="linear-gradient-4" x1="106.59" y1="166.66" x2="52.07" y2="134.74" gradientUnits="userSpaceOnUse">
      <stop offset="0" stop-color="#0070e0"/>
      <stop offset="1" stop-color="#0052d6"/>
    </linearGradient>
    <linearGradient id="linear-gradient-5" x1="163.37" y1="111.45" x2="125.87" y2="184.59" gradientUnits="userSpaceOnUse">
      <stop offset="0" stop-color="#008feb"/>
      <stop offset="1" stop-color="#0070e0"/>
    </linearGradient>
  </defs>
  <path class="cls-6" d="M60.5,274.63c0,.86.02,1.78.08,2.76.05.97.14,1.98.26,3.01l-25.63-32.35c-.35-.42-.65-.75-.92-1-.27-.25-.55-.44-.85-.57-.29-.14-.63-.23-1-.28-.37-.05-.83-.08-1.37-.08h-6.58v53.88h11.02v-28.88c0-.79-.02-1.63-.05-2.53-.04-.9-.11-1.83-.2-2.79l25.4,32.13c.64.76,1.29,1.3,1.94,1.61.65.31,1.46.46,2.42.46h6.51v-53.88h-11.02v28.51Z"/>
  <path class="cls-6" d="M93.66,246.12l-20.85,53.88h9.76c1.04,0,1.9-.28,2.61-.83.7-.56,1.19-1.18,1.46-1.87l.18-.53c1.5-5.44,9.16-10.19,16.34-11.5,2.06-.37,4.12-.48,6.15-.34,2.33,6.9,4.17,12.37,4.17,12.37.35.79.85,1.44,1.52,1.94.67.51,1.54.76,2.63.76h9.69l-20.85-53.88h-12.79ZM101.42,275.74c-2.97.54-5.8,1.46-8.44,2.7,3.37-10.03,6.85-20.46,7.04-21.23.19.67,3.01,9.07,6.01,18-1.54.07-3.08.24-4.61.52Z"/>
  <path class="cls-6" d="M179.63,246.12c-.54,0-1.02.02-1.42.04-.41.02-.77.1-1.09.22-.32.12-.61.32-.87.57-.26.26-.51.62-.76,1.09l-13.83,27.21c-.52.94-1,1.92-1.46,2.96-.46,1.04-.89,2.1-1.31,3.18-.42-1.06-.85-2.09-1.31-3.11-.45-1.01-.93-1.98-1.42-2.92l-13.87-27.33c-.25-.47-.5-.83-.76-1.09-.26-.26-.55-.45-.87-.57-.32-.12-.68-.2-1.09-.22-.41-.02-.88-.04-1.42-.04h-9.54v53.88h11.02v-30.99c0-.72-.02-1.5-.07-2.35-.05-.85-.11-1.72-.19-2.61l14.31,27.77c.44.86,1.04,1.52,1.79,1.96.75.44,1.61.67,2.57.67h1.7c.96,0,1.82-.22,2.57-.67.75-.45,1.35-1.1,1.79-1.96l14.31-27.69c-.1.86-.17,1.71-.2,2.55-.04.84-.05,1.61-.05,2.33v30.99h11.02v-53.88h-9.54Z"/>
  <g>
    <path class="cls-5" d="M136.08,49.13c23.93-.04,37.92-.04,61.15,0l14.85,44.89-37.11,27.21c-1.54-5.07-2.52-8.06-4.6-12.37-1.65-3.5-4.69-7.12-9.19-10.25-5.95-4.43-12.14-6.03-18.02-6.01-14.68.18-24.67-.02-39.59,0,3.54-10.53,6.15-19.11,8.84-27.22,1.44-3.93,4.39-8.12,8.84-11.31,5.03-3.7,8.86-4.99,14.84-4.95Z"/>
    <path class="cls-4" d="M71.04,85.89c7.03,5.12,14.38,10.25,23.33,16.61,4.57-13.94,7.84-23.38,12.37-37.11,1.64-5.88,5.05-11.31,10.96-15.55,4.55-3.31,8.92-5.1,13.08-5.66,4.41-.57,7.56-.58,12.72-.7L129.36,0h-47.36c-7.27,22.32-11.6,35.63-19.09,58.32-1.75,5.76-1.74,9.81.35,15.55,1.59,5.38,4.64,9.49,7.77,12.02Z"/>
    <path class="cls-3" d="M64.68,135.02c5.46-.11,10.3-1.78,13.78-4.24,6.94-4.85,14.09-10.26,22.97-16.61-11.92-8.84-19.88-14.87-31.81-23.33-4.82-3.46-8.92-8.39-11.31-15.55-1.58-5.11-1.93-9.82-1.06-13.79.72-4.54,1.68-7.53,3.18-12.37H14.49L0,94.02c19.04,13.87,30.36,22.1,49.48,36.05,5.08,3.63,8.93,4.82,15.2,4.95Z"/>
    <path class="cls-2" d="M122.65,153.04c1.57-5.43,1.5-10.55.35-14.49-2.58-8.22-5.52-16.7-8.84-27.22-12.07,8.71-20.27,14.42-31.81,22.97-4.97,3.69-10.93,6.02-18.38,6.01-5.45.06-10.03-1.08-13.43-3.18-4.2-2.04-6.75-3.88-10.96-7.07l-14.14,43.83,38.53,27.57c18.77-13.6,30.09-21.83,49.48-35.7,4.81-3.71,7.16-7,9.19-12.73Z"/>
    <path class="cls-1" d="M157.99,103.21c-4.66-3.45-9.54-4.98-13.79-4.95-8.48-.24-17.44-.06-28.63,0,4.71,14.01,7.6,23.57,12.37,37.47,1.78,5.59,2.11,11.96,0,19.09-1.75,5.18-4.29,9.18-7.07,12.01-3.5,3.11-6.05,4.97-10.25,8.13l37.11,26.86,38.17-27.92c-7.11-22.27-11.43-35.58-18.73-58.32-1.95-5.71-4.34-8.97-9.19-12.37Z"/>
  </g>
</svg>